# xmcd
#
# Track frame offsets: 
#        150
#        14420
#        30312
#
# Disc length: 632 seconds
#
# Revision: 1
# Processed by: cddbd v1.5.2PL0 Copyright (c) Steve Scherf et al.
# Submitted via: ExactAudioCopy v0.99pb4
#
DISCID=16027603
DTITLE=Teenage Fanclub - I Don't Want Control Of You [CD 1)
DYEAR=1997
DGENRE=Rock
TTITLE0=I Don't Want Control Of You
TTITLE1=The Count
TTITLE2=Middle Of The Road
EXTD=
EXTT0=
EXTT1=
EXTT2=
PLAYORDER=
